<mxfile host="65bd71144e">
    <diagram id="A9qg82AuoLQeKydgUByE" name="第 1 页">
        <mxGraphModel dx="903" dy="520" grid="1" gridSize="10" guides="1" tooltips="1" connect="1" arrows="1" fold="1" page="1" pageScale="1" pageWidth="827" pageHeight="1169" math="0" shadow="0">
            <root>
                <mxCell id="0"/>
                <mxCell id="1" parent="0"/>
                <mxCell id="2" value="浏览器" style="rounded=0;whiteSpace=wrap;html=1;fillColor=#1ba1e2;fontColor=#ffffff;strokeColor=#006EAF;fontSize=14;" vertex="1" parent="1">
                    <mxGeometry x="90" y="110" width="120" height="140" as="geometry"/>
                </mxCell>
                <mxCell id="3" value="服务器" style="rounded=0;whiteSpace=wrap;html=1;fillColor=#1ba1e2;fontColor=#ffffff;strokeColor=#006EAF;fontSize=14;" vertex="1" parent="1">
                    <mxGeometry x="480" y="110" width="120" height="150" as="geometry"/>
                </mxCell>
                <mxCell id="4" value="建立TCP连接" style="rounded=0;whiteSpace=wrap;html=1;fillColor=#d80073;fontColor=#ffffff;strokeColor=#A50040;fontSize=14;" vertex="1" parent="1">
                    <mxGeometry x="270" y="30" width="120" height="30" as="geometry"/>
                </mxCell>
                <mxCell id="5" value="HTTP请求" style="rounded=0;whiteSpace=wrap;html=1;fillColor=#1ba1e2;strokeColor=#006EAF;fontColor=#ffffff;fontSize=14;" vertex="1" parent="1">
                    <mxGeometry x="270" y="60" width="120" height="30" as="geometry"/>
                </mxCell>
                <mxCell id="6" value="HTTP响应" style="rounded=0;whiteSpace=wrap;html=1;fillColor=#1ba1e2;fontColor=#ffffff;strokeColor=#006EAF;fontSize=14;" vertex="1" parent="1">
                    <mxGeometry x="270" y="90" width="120" height="30" as="geometry"/>
                </mxCell>
                <mxCell id="7" value="断开TCP连接" style="rounded=0;whiteSpace=wrap;html=1;fillColor=#d80073;fontColor=#ffffff;strokeColor=#A50040;fontSize=14;" vertex="1" parent="1">
                    <mxGeometry x="270" y="120" width="120" height="30" as="geometry"/>
                </mxCell>
                <mxCell id="8" value="建立TCP连接" style="rounded=0;whiteSpace=wrap;html=1;fillColor=#d80073;fontColor=#ffffff;strokeColor=#A50040;fontSize=14;" vertex="1" parent="1">
                    <mxGeometry x="270" y="180" width="120" height="30" as="geometry"/>
                </mxCell>
                <mxCell id="9" value="HTTP请求" style="rounded=0;whiteSpace=wrap;html=1;fillColor=#1ba1e2;strokeColor=#006EAF;fontColor=#ffffff;fontSize=14;" vertex="1" parent="1">
                    <mxGeometry x="270" y="210" width="120" height="30" as="geometry"/>
                </mxCell>
                <mxCell id="10" value="HTTP响应" style="rounded=0;whiteSpace=wrap;html=1;fillColor=#1ba1e2;fontColor=#ffffff;strokeColor=#006EAF;fontSize=14;" vertex="1" parent="1">
                    <mxGeometry x="270" y="240" width="120" height="30" as="geometry"/>
                </mxCell>
                <mxCell id="11" value="断开TCP连接" style="rounded=0;whiteSpace=wrap;html=1;fillColor=#d80073;fontColor=#ffffff;strokeColor=#A50040;fontSize=14;" vertex="1" parent="1">
                    <mxGeometry x="270" y="270" width="120" height="30" as="geometry"/>
                </mxCell>
                <mxCell id="12" value="建立TCP连接" style="rounded=0;whiteSpace=wrap;html=1;fillColor=#d80073;fontColor=#ffffff;strokeColor=#A50040;fontSize=14;" vertex="1" parent="1">
                    <mxGeometry x="270" y="330" width="120" height="30" as="geometry"/>
                </mxCell>
                <mxCell id="13" value="HTTP请求" style="rounded=0;whiteSpace=wrap;html=1;fillColor=#1ba1e2;strokeColor=#006EAF;fontColor=#ffffff;fontSize=14;" vertex="1" parent="1">
                    <mxGeometry x="270" y="360" width="120" height="30" as="geometry"/>
                </mxCell>
                <mxCell id="14" value="HTTP响应" style="rounded=0;whiteSpace=wrap;html=1;fillColor=#1ba1e2;fontColor=#ffffff;strokeColor=#006EAF;fontSize=14;" vertex="1" parent="1">
                    <mxGeometry x="270" y="390" width="120" height="30" as="geometry"/>
                </mxCell>
                <mxCell id="15" value="断开TCP连接" style="rounded=0;whiteSpace=wrap;html=1;fillColor=#d80073;fontColor=#ffffff;strokeColor=#A50040;fontSize=14;" vertex="1" parent="1">
                    <mxGeometry x="270" y="420" width="120" height="30" as="geometry"/>
                </mxCell>
            </root>
        </mxGraphModel>
    </diagram>
</mxfile>